%TF.GenerationSoftware,KiCad,Pcbnew,8.0.6*%
%TF.CreationDate,2025-01-31T15:21:25+01:00*%
%TF.ProjectId,sleepy58,736c6565-7079-4353-982e-6b696361645f,v1.0.0*%
%TF.SameCoordinates,Original*%
%TF.FileFunction,Legend,Bot*%
%TF.FilePolarity,Positive*%
%FSLAX46Y46*%
G04 Gerber Fmt 4.6, Leading zero omitted, Abs format (unit mm)*
G04 Created by KiCad (PCBNEW 8.0.6) date 2025-01-31 15:21:25*
%MOMM*%
%LPD*%
G01*
G04 APERTURE LIST*
%ADD10C,0.150000*%
%ADD11C,0.100000*%
%ADD12C,0.120000*%
G04 APERTURE END LIST*
D10*
X104454819Y-36457619D02*
X104454819Y-36648095D01*
X104454819Y-36648095D02*
X104502438Y-36743333D01*
X104502438Y-36743333D02*
X104597676Y-36838571D01*
X104597676Y-36838571D02*
X104788152Y-36886190D01*
X104788152Y-36886190D02*
X105121485Y-36886190D01*
X105121485Y-36886190D02*
X105311961Y-36838571D01*
X105311961Y-36838571D02*
X105407200Y-36743333D01*
X105407200Y-36743333D02*
X105454819Y-36648095D01*
X105454819Y-36648095D02*
X105454819Y-36457619D01*
X105454819Y-36457619D02*
X105407200Y-36362381D01*
X105407200Y-36362381D02*
X105311961Y-36267143D01*
X105311961Y-36267143D02*
X105121485Y-36219524D01*
X105121485Y-36219524D02*
X104788152Y-36219524D01*
X104788152Y-36219524D02*
X104597676Y-36267143D01*
X104597676Y-36267143D02*
X104502438Y-36362381D01*
X104502438Y-36362381D02*
X104454819Y-36457619D01*
X104931009Y-37648095D02*
X104931009Y-37314762D01*
X105454819Y-37314762D02*
X104454819Y-37314762D01*
X104454819Y-37314762D02*
X104454819Y-37790952D01*
X104931009Y-38505238D02*
X104931009Y-38171905D01*
X105454819Y-38171905D02*
X104454819Y-38171905D01*
X104454819Y-38171905D02*
X104454819Y-38648095D01*
X94454819Y-36790952D02*
X94454819Y-36981428D01*
X94454819Y-36981428D02*
X94502438Y-37076666D01*
X94502438Y-37076666D02*
X94597676Y-37171904D01*
X94597676Y-37171904D02*
X94788152Y-37219523D01*
X94788152Y-37219523D02*
X95121485Y-37219523D01*
X95121485Y-37219523D02*
X95311961Y-37171904D01*
X95311961Y-37171904D02*
X95407200Y-37076666D01*
X95407200Y-37076666D02*
X95454819Y-36981428D01*
X95454819Y-36981428D02*
X95454819Y-36790952D01*
X95454819Y-36790952D02*
X95407200Y-36695714D01*
X95407200Y-36695714D02*
X95311961Y-36600476D01*
X95311961Y-36600476D02*
X95121485Y-36552857D01*
X95121485Y-36552857D02*
X94788152Y-36552857D01*
X94788152Y-36552857D02*
X94597676Y-36600476D01*
X94597676Y-36600476D02*
X94502438Y-36695714D01*
X94502438Y-36695714D02*
X94454819Y-36790952D01*
X95454819Y-37648095D02*
X94454819Y-37648095D01*
X94454819Y-37648095D02*
X95454819Y-38219523D01*
X95454819Y-38219523D02*
X94454819Y-38219523D01*
D11*
%TO.C,D1*%
X99250000Y-105000000D02*
X99650000Y-105000000D01*
X99650000Y-105000000D02*
X99650000Y-104450000D01*
X99650000Y-105000000D02*
X99650000Y-105550000D01*
X99650000Y-105000000D02*
X100250000Y-104600000D01*
X100250000Y-104600000D02*
X100250000Y-105400000D01*
X100250000Y-105000000D02*
X100750000Y-105000000D01*
X100250000Y-105400000D02*
X99650000Y-105000000D01*
%TO.C,D21*%
X189250000Y-115000000D02*
X189650000Y-115000000D01*
X189650000Y-115000000D02*
X189650000Y-114450000D01*
X189650000Y-115000000D02*
X189650000Y-115550000D01*
X189650000Y-115000000D02*
X190250000Y-114600000D01*
X190250000Y-114600000D02*
X190250000Y-115400000D01*
X190250000Y-115000000D02*
X190750000Y-115000000D01*
X190250000Y-115400000D02*
X189650000Y-115000000D01*
%TO.C,D29*%
X57639367Y-149312291D02*
X57945784Y-149055176D01*
X57945784Y-149055176D02*
X57592251Y-148633851D01*
X57945784Y-149055176D02*
X58148296Y-148363085D01*
X57945784Y-149055176D02*
X58299318Y-149476500D01*
X58148296Y-148363085D02*
X58662526Y-148975921D01*
X58405411Y-148669503D02*
X58788433Y-148348109D01*
X58662526Y-148975921D02*
X57945784Y-149055176D01*
%TO.C,D2*%
X99250000Y-88000000D02*
X99650000Y-88000000D01*
X99650000Y-88000000D02*
X99650000Y-87450000D01*
X99650000Y-88000000D02*
X99650000Y-88550000D01*
X99650000Y-88000000D02*
X100250000Y-87600000D01*
X100250000Y-87600000D02*
X100250000Y-88400000D01*
X100250000Y-88000000D02*
X100750000Y-88000000D01*
X100250000Y-88400000D02*
X99650000Y-88000000D01*
%TO.C,D14*%
X153250000Y-85500000D02*
X153650000Y-85500000D01*
X153650000Y-85500000D02*
X153650000Y-84950000D01*
X153650000Y-85500000D02*
X153650000Y-86050000D01*
X153650000Y-85500000D02*
X154250000Y-85100000D01*
X154250000Y-85100000D02*
X154250000Y-85900000D01*
X154250000Y-85500000D02*
X154750000Y-85500000D01*
X154250000Y-85900000D02*
X153650000Y-85500000D01*
%TO.C,D6*%
X117250000Y-85500000D02*
X117650000Y-85500000D01*
X117650000Y-85500000D02*
X117650000Y-84950000D01*
X117650000Y-85500000D02*
X117650000Y-86050000D01*
X117650000Y-85500000D02*
X118250000Y-85100000D01*
X118250000Y-85100000D02*
X118250000Y-85900000D01*
X118250000Y-85500000D02*
X118750000Y-85500000D01*
X118250000Y-85900000D02*
X117650000Y-85500000D01*
%TO.C,D9*%
X135250000Y-97500000D02*
X135650000Y-97500000D01*
X135650000Y-97500000D02*
X135650000Y-96950000D01*
X135650000Y-97500000D02*
X135650000Y-98050000D01*
X135650000Y-97500000D02*
X136250000Y-97100000D01*
X136250000Y-97100000D02*
X136250000Y-97900000D01*
X136250000Y-97500000D02*
X136750000Y-97500000D01*
X136250000Y-97900000D02*
X135650000Y-97500000D01*
%TO.C,D8*%
X117250000Y-51500000D02*
X117650000Y-51500000D01*
X117650000Y-51500000D02*
X117650000Y-50950000D01*
X117650000Y-51500000D02*
X117650000Y-52050000D01*
X117650000Y-51500000D02*
X118250000Y-51100000D01*
X118250000Y-51100000D02*
X118250000Y-51900000D01*
X118250000Y-51500000D02*
X118750000Y-51500000D01*
X118250000Y-51900000D02*
X117650000Y-51500000D01*
%TO.C,D25*%
X81005331Y-114955015D02*
X81381208Y-114818207D01*
X81381208Y-114818207D02*
X81193097Y-114301376D01*
X81381208Y-114818207D02*
X81569319Y-115335038D01*
X81381208Y-114818207D02*
X81808215Y-114237118D01*
X81808215Y-114237118D02*
X82081831Y-114988872D01*
X81945023Y-114612995D02*
X82414869Y-114441985D01*
X82081831Y-114988872D02*
X81381208Y-114818207D01*
%TO.C,D26*%
X63750481Y-122805100D02*
X64096891Y-122605100D01*
X64096891Y-122605100D02*
X63821891Y-122128786D01*
X64096891Y-122605100D02*
X64371891Y-123081414D01*
X64096891Y-122605100D02*
X64416506Y-121958690D01*
X64416506Y-121958690D02*
X64816506Y-122651510D01*
X64616506Y-122305100D02*
X65049519Y-122055100D01*
X64816506Y-122651510D02*
X64096891Y-122605100D01*
%TO.C,D5*%
X117250000Y-102500000D02*
X117650000Y-102500000D01*
X117650000Y-102500000D02*
X117650000Y-101950000D01*
X117650000Y-102500000D02*
X117650000Y-103050000D01*
X117650000Y-102500000D02*
X118250000Y-102100000D01*
X118250000Y-102100000D02*
X118250000Y-102900000D01*
X118250000Y-102500000D02*
X118750000Y-102500000D01*
X118250000Y-102900000D02*
X117650000Y-102500000D01*
%TO.C,D12*%
X135250000Y-46500000D02*
X135650000Y-46500000D01*
X135650000Y-46500000D02*
X135650000Y-45950000D01*
X135650000Y-46500000D02*
X135650000Y-47050000D01*
X135650000Y-46500000D02*
X136250000Y-46100000D01*
X136250000Y-46100000D02*
X136250000Y-46900000D01*
X136250000Y-46500000D02*
X136750000Y-46500000D01*
X136250000Y-46900000D02*
X135650000Y-46500000D01*
%TO.C,D23*%
X189250000Y-81000000D02*
X189650000Y-81000000D01*
X189650000Y-81000000D02*
X189650000Y-80450000D01*
X189650000Y-81000000D02*
X189650000Y-81550000D01*
X189650000Y-81000000D02*
X190250000Y-80600000D01*
X190250000Y-80600000D02*
X190250000Y-81400000D01*
X190250000Y-81000000D02*
X190750000Y-81000000D01*
X190250000Y-81400000D02*
X189650000Y-81000000D01*
%TO.C,D4*%
X99250000Y-54000000D02*
X99650000Y-54000000D01*
X99650000Y-54000000D02*
X99650000Y-53450000D01*
X99650000Y-54000000D02*
X99650000Y-54550000D01*
X99650000Y-54000000D02*
X100250000Y-53600000D01*
X100250000Y-53600000D02*
X100250000Y-54400000D01*
X100250000Y-54000000D02*
X100750000Y-54000000D01*
X100250000Y-54400000D02*
X99650000Y-54000000D01*
%TO.C,D27*%
X47639367Y-133812291D02*
X47945784Y-133555176D01*
X47945784Y-133555176D02*
X47592251Y-133133851D01*
X47945784Y-133555176D02*
X48148296Y-132863085D01*
X47945784Y-133555176D02*
X48299318Y-133976500D01*
X48148296Y-132863085D02*
X48662526Y-133475921D01*
X48405411Y-133169503D02*
X48788433Y-132848109D01*
X48662526Y-133475921D02*
X47945784Y-133555176D01*
%TO.C,D15*%
X153250000Y-68500000D02*
X153650000Y-68500000D01*
X153650000Y-68500000D02*
X153650000Y-67950000D01*
X153650000Y-68500000D02*
X153650000Y-69050000D01*
X153650000Y-68500000D02*
X154250000Y-68100000D01*
X154250000Y-68100000D02*
X154250000Y-68900000D01*
X154250000Y-68500000D02*
X154750000Y-68500000D01*
X154250000Y-68900000D02*
X153650000Y-68500000D01*
%TO.C,D17*%
X171250000Y-112500000D02*
X171650000Y-112500000D01*
X171650000Y-112500000D02*
X171650000Y-111950000D01*
X171650000Y-112500000D02*
X171650000Y-113050000D01*
X171650000Y-112500000D02*
X172250000Y-112100000D01*
X172250000Y-112100000D02*
X172250000Y-112900000D01*
X172250000Y-112500000D02*
X172750000Y-112500000D01*
X172250000Y-112900000D02*
X171650000Y-112500000D01*
D12*
%TO.C,JST1*%
X76040000Y-88240000D02*
X76040000Y-89240000D01*
X76040000Y-96060000D02*
X76040000Y-95060000D01*
X76960000Y-88240000D02*
X76040000Y-88240000D01*
X76960000Y-96060000D02*
X76040000Y-96060000D01*
D11*
X78100000Y-87600000D02*
X78100000Y-86600000D01*
X78600000Y-87100000D02*
X77600000Y-87100000D01*
X79600000Y-87100000D02*
X80600000Y-87100000D01*
D12*
X81160000Y-96060000D02*
X82160000Y-96060000D01*
X81240000Y-88240000D02*
X82160000Y-88240000D01*
X82160000Y-88240000D02*
X82160000Y-89240000D01*
X82160000Y-96060000D02*
X82160000Y-95060000D01*
D11*
%TO.C,D22*%
X189250000Y-98000000D02*
X189650000Y-98000000D01*
X189650000Y-98000000D02*
X189650000Y-97450000D01*
X189650000Y-98000000D02*
X189650000Y-98550000D01*
X189650000Y-98000000D02*
X190250000Y-97600000D01*
X190250000Y-97600000D02*
X190250000Y-98400000D01*
X190250000Y-98000000D02*
X190750000Y-98000000D01*
X190250000Y-98400000D02*
X189650000Y-98000000D01*
%TO.C,D7*%
X117250000Y-68500000D02*
X117650000Y-68500000D01*
X117650000Y-68500000D02*
X117650000Y-67950000D01*
X117650000Y-68500000D02*
X117650000Y-69050000D01*
X117650000Y-68500000D02*
X118250000Y-68100000D01*
X118250000Y-68100000D02*
X118250000Y-68900000D01*
X118250000Y-68500000D02*
X118750000Y-68500000D01*
X118250000Y-68900000D02*
X117650000Y-68500000D01*
%TO.C,D20*%
X171250000Y-61500000D02*
X171650000Y-61500000D01*
X171650000Y-61500000D02*
X171650000Y-60950000D01*
X171650000Y-61500000D02*
X171650000Y-62050000D01*
X171650000Y-61500000D02*
X172250000Y-61100000D01*
X172250000Y-61100000D02*
X172250000Y-61900000D01*
X172250000Y-61500000D02*
X172750000Y-61500000D01*
X172250000Y-61900000D02*
X171650000Y-61500000D01*
%TO.C,D10*%
X135250000Y-80500000D02*
X135650000Y-80500000D01*
X135650000Y-80500000D02*
X135650000Y-79950000D01*
X135650000Y-80500000D02*
X135650000Y-81050000D01*
X135650000Y-80500000D02*
X136250000Y-80100000D01*
X136250000Y-80100000D02*
X136250000Y-80900000D01*
X136250000Y-80500000D02*
X136750000Y-80500000D01*
X136250000Y-80900000D02*
X135650000Y-80500000D01*
%TO.C,D3*%
X99250000Y-71000000D02*
X99650000Y-71000000D01*
X99650000Y-71000000D02*
X99650000Y-70450000D01*
X99650000Y-71000000D02*
X99650000Y-71550000D01*
X99650000Y-71000000D02*
X100250000Y-70600000D01*
X100250000Y-70600000D02*
X100250000Y-71400000D01*
X100250000Y-71000000D02*
X100750000Y-71000000D01*
X100250000Y-71400000D02*
X99650000Y-71000000D01*
%TO.C,D11*%
X135250000Y-63500000D02*
X135650000Y-63500000D01*
X135650000Y-63500000D02*
X135650000Y-62950000D01*
X135650000Y-63500000D02*
X135650000Y-64050000D01*
X135650000Y-63500000D02*
X136250000Y-63100000D01*
X136250000Y-63100000D02*
X136250000Y-63900000D01*
X136250000Y-63500000D02*
X136750000Y-63500000D01*
X136250000Y-63900000D02*
X135650000Y-63500000D01*
%TO.C,D16*%
X153250000Y-51500000D02*
X153650000Y-51500000D01*
X153650000Y-51500000D02*
X153650000Y-50950000D01*
X153650000Y-51500000D02*
X153650000Y-52050000D01*
X153650000Y-51500000D02*
X154250000Y-51100000D01*
X154250000Y-51100000D02*
X154250000Y-51900000D01*
X154250000Y-51500000D02*
X154750000Y-51500000D01*
X154250000Y-51900000D02*
X153650000Y-51500000D01*
%TO.C,D28*%
X74433369Y-138348464D02*
X74795892Y-138179416D01*
X74795892Y-138179416D02*
X74563452Y-137680947D01*
X74795892Y-138179416D02*
X75028332Y-138677886D01*
X74795892Y-138179416D02*
X75170630Y-137563322D01*
X75170630Y-137563322D02*
X75508724Y-138288369D01*
X75339677Y-137925845D02*
X75792831Y-137714536D01*
X75508724Y-138288369D02*
X74795892Y-138179416D01*
D12*
%TO.C,PWR1*%
X96550000Y-37785000D02*
X96550000Y-36995000D01*
X97150000Y-35985000D02*
X102850000Y-35985000D01*
X98400000Y-38835000D02*
X100100000Y-38835000D01*
X101400000Y-38835000D02*
X101600000Y-38835000D01*
X103450000Y-36995000D02*
X103450000Y-37785000D01*
D11*
%TO.C,D13*%
X153250000Y-102500000D02*
X153650000Y-102500000D01*
X153650000Y-102500000D02*
X153650000Y-101950000D01*
X153650000Y-102500000D02*
X153650000Y-103050000D01*
X153650000Y-102500000D02*
X154250000Y-102100000D01*
X154250000Y-102100000D02*
X154250000Y-102900000D01*
X154250000Y-102500000D02*
X154750000Y-102500000D01*
X154250000Y-102900000D02*
X153650000Y-102500000D01*
%TO.C,D19*%
X171250000Y-78500000D02*
X171650000Y-78500000D01*
X171650000Y-78500000D02*
X171650000Y-77950000D01*
X171650000Y-78500000D02*
X171650000Y-79050000D01*
X171650000Y-78500000D02*
X172250000Y-78100000D01*
X172250000Y-78100000D02*
X172250000Y-78900000D01*
X172250000Y-78500000D02*
X172750000Y-78500000D01*
X172250000Y-78900000D02*
X171650000Y-78500000D01*
%TO.C,D18*%
X171250000Y-95500000D02*
X171650000Y-95500000D01*
X171650000Y-95500000D02*
X171650000Y-94950000D01*
X171650000Y-95500000D02*
X171650000Y-96050000D01*
X171650000Y-95500000D02*
X172250000Y-95100000D01*
X172250000Y-95100000D02*
X172250000Y-95900000D01*
X172250000Y-95500000D02*
X172750000Y-95500000D01*
X172250000Y-95900000D02*
X171650000Y-95500000D01*
%TO.C,D24*%
X189250000Y-64000000D02*
X189650000Y-64000000D01*
X189650000Y-64000000D02*
X189650000Y-63450000D01*
X189650000Y-64000000D02*
X189650000Y-64550000D01*
X189650000Y-64000000D02*
X190250000Y-63600000D01*
X190250000Y-63600000D02*
X190250000Y-64400000D01*
X190250000Y-64000000D02*
X190750000Y-64000000D01*
X190250000Y-64400000D02*
X189650000Y-64000000D01*
%TD*%
M02*
