%TF.GenerationSoftware,KiCad,Pcbnew,8.0.6*%
%TF.CreationDate,2025-01-31T15:21:25+01:00*%
%TF.ProjectId,sleepy58,736c6565-7079-4353-982e-6b696361645f,v1.0.0*%
%TF.SameCoordinates,Original*%
%TF.FileFunction,Paste,Bot*%
%TF.FilePolarity,Positive*%
%FSLAX46Y46*%
G04 Gerber Fmt 4.6, Leading zero omitted, Abs format (unit mm)*
G04 Created by KiCad (PCBNEW 8.0.6) date 2025-01-31 15:21:25*
%MOMM*%
%LPD*%
G01*
G04 APERTURE LIST*
G04 Aperture macros list*
%AMRotRect*
0 Rectangle, with rotation*
0 The origin of the aperture is its center*
0 $1 length*
0 $2 width*
0 $3 Rotation angle, in degrees counterclockwise*
0 Add horizontal line*
21,1,$1,$2,0,0,$3*%
%AMFreePoly0*
4,1,6,0.600000,-1.000000,0.000000,-0.400000,-0.600000,-1.000000,-0.600000,0.250000,0.600000,0.250000,0.600000,-1.000000,0.600000,-1.000000,$1*%
%AMFreePoly1*
4,1,6,0.600000,-0.200000,0.600000,-0.400000,-0.600000,-0.400000,-0.600000,-0.200000,0.000000,0.400000,0.600000,-0.200000,0.600000,-0.200000,$1*%
G04 Aperture macros list end*
%ADD10R,0.900000X1.200000*%
%ADD11RotRect,0.900000X1.200000X40.000000*%
%ADD12RotRect,0.900000X1.200000X20.000000*%
%ADD13RotRect,0.900000X1.200000X30.000000*%
%ADD14FreePoly0,0.000000*%
%ADD15FreePoly1,0.000000*%
%ADD16O,2.750000X1.800000*%
%ADD17RotRect,0.900000X1.200000X25.000000*%
%ADD18R,1.000000X0.800000*%
%ADD19R,0.700000X1.500000*%
G04 APERTURE END LIST*
D10*
%TO.C,D1*%
X98350000Y-105000000D03*
X101650000Y-105000000D03*
%TD*%
%TO.C,D21*%
X188350000Y-115000000D03*
X191650000Y-115000000D03*
%TD*%
D11*
%TO.C,D29*%
X56949927Y-149890800D03*
X59477873Y-147769600D03*
%TD*%
D10*
%TO.C,D2*%
X98350000Y-88000000D03*
X101650000Y-88000000D03*
%TD*%
%TO.C,D14*%
X152350000Y-85500000D03*
X155650000Y-85500000D03*
%TD*%
%TO.C,D6*%
X116350000Y-85500000D03*
X119650000Y-85500000D03*
%TD*%
%TO.C,D9*%
X134350000Y-97500000D03*
X137650000Y-97500000D03*
%TD*%
%TO.C,D8*%
X116350000Y-51500000D03*
X119650000Y-51500000D03*
%TD*%
D12*
%TO.C,D25*%
X80159607Y-115262833D03*
X83260593Y-114134167D03*
%TD*%
D13*
%TO.C,D26*%
X62971058Y-123255100D03*
X65828942Y-121605100D03*
%TD*%
D10*
%TO.C,D5*%
X116350000Y-102500000D03*
X119650000Y-102500000D03*
%TD*%
%TO.C,D12*%
X134350000Y-46500000D03*
X137650000Y-46500000D03*
%TD*%
%TO.C,D23*%
X188350000Y-81000000D03*
X191650000Y-81000000D03*
%TD*%
%TO.C,D4*%
X98350000Y-54000000D03*
X101650000Y-54000000D03*
%TD*%
D11*
%TO.C,D27*%
X46949927Y-134390800D03*
X49477873Y-132269600D03*
%TD*%
D10*
%TO.C,D15*%
X152350000Y-68500000D03*
X155650000Y-68500000D03*
%TD*%
%TO.C,D17*%
X170350000Y-112500000D03*
X173650000Y-112500000D03*
%TD*%
D14*
%TO.C,JST1*%
X78100000Y-91784000D03*
X80100000Y-91784000D03*
D15*
X80100000Y-92800000D03*
X78100000Y-92800000D03*
%TD*%
D10*
%TO.C,D22*%
X188350000Y-98000000D03*
X191650000Y-98000000D03*
%TD*%
%TO.C,D7*%
X116350000Y-68500000D03*
X119650000Y-68500000D03*
%TD*%
%TO.C,D20*%
X170350000Y-61500000D03*
X173650000Y-61500000D03*
%TD*%
%TO.C,D10*%
X134350000Y-80500000D03*
X137650000Y-80500000D03*
%TD*%
%TO.C,D3*%
X98350000Y-71000000D03*
X101650000Y-71000000D03*
%TD*%
D16*
%TO.C,MCU1*%
X87194960Y-43280000D03*
X87194960Y-45820000D03*
X87194960Y-48360000D03*
X87194960Y-50900000D03*
X87194960Y-53440000D03*
X87194960Y-55980000D03*
X87194960Y-58520000D03*
X71005040Y-58520000D03*
X71005040Y-55980000D03*
X71005040Y-53440000D03*
X71005040Y-50900000D03*
X71005040Y-48360000D03*
X71005040Y-45820000D03*
X71005040Y-43280000D03*
%TD*%
D10*
%TO.C,D11*%
X134350000Y-63500000D03*
X137650000Y-63500000D03*
%TD*%
%TO.C,D16*%
X152350000Y-51500000D03*
X155650000Y-51500000D03*
%TD*%
D17*
%TO.C,D28*%
X73617692Y-138728820D03*
X76608508Y-137334180D03*
%TD*%
D18*
%TO.C,PWR1*%
X96350000Y-38495000D03*
X103650000Y-38495000D03*
X96350000Y-36285000D03*
X103650000Y-36285000D03*
D19*
X97750000Y-39145000D03*
X100750000Y-39145000D03*
X102250000Y-39145000D03*
%TD*%
D10*
%TO.C,D13*%
X152350000Y-102500000D03*
X155650000Y-102500000D03*
%TD*%
%TO.C,D19*%
X170350000Y-78500000D03*
X173650000Y-78500000D03*
%TD*%
%TO.C,D18*%
X170350000Y-95500000D03*
X173650000Y-95500000D03*
%TD*%
%TO.C,D24*%
X188350000Y-64000000D03*
X191650000Y-64000000D03*
%TD*%
M02*
