M48
; DRILL file {KiCad 8.0.6} date 2025-01-31T15:21:27+0100
; FORMAT={-:-/ absolute / inch / decimal}
; #@! TF.CreationDate,2025-01-31T15:21:27+01:00
; #@! TF.GenerationSoftware,Kicad,Pcbnew,8.0.6
; #@! TF.FileFunction,Plated,1,2,PTH
FMAT,2
INCH
; #@! TA.AperFunction,Plated,PTH,ViaDrill
T1C0.0157
; #@! TA.AperFunction,Plated,PTH,ComponentDrill
T2C0.0295
; #@! TA.AperFunction,Plated,PTH,ComponentDrill
T3C0.0400
; #@! TA.AperFunction,Plated,PTH,ComponentDrill
T4C0.0500
%
G90
G05
T1
X1.8122Y-5.3213
X1.9841Y-5.1771
X2.2059Y-5.9316
X2.3778Y-5.7873
X2.4383Y-4.8762
X2.6326Y-4.764
X2.6343Y-1.9222
X2.6947Y-2.0039
X2.8555Y-5.4817
X2.8735Y-1.9039
X2.8735Y-1.7039
X2.8738Y-2.1039
X2.8738Y-2.3039
X2.8741Y-2.2039
X2.8854Y-3.7874
X2.8981Y-2.066
X3.0589Y-5.3869
X3.1115Y-4.5541
X3.1144Y-3.5854
X3.2063Y-3.6135
X3.2291Y-1.7619
X3.3097Y-1.8401
X3.3224Y-4.4773
X3.3316Y-1.8742
X3.3476Y-2.134
X3.3659Y-1.9403
X3.4516Y-2.3953
X3.478Y-3.6869
X3.4812Y-2.4229
X3.4999Y-2.1539
X3.524Y-2.1039
X3.633Y-2.2535
X3.7963Y-1.9996
X3.8248Y-2.126
X3.8248Y-2.7953
X3.8248Y-3.4646
X3.8248Y-4.1339
X3.8729Y-1.5935
X3.9366Y-1.5892
X4.0492Y-2.126
X4.0492Y-2.7953
X4.0492Y-3.4646
X4.0492Y-4.1339
X4.5335Y-2.0276
X4.5335Y-2.6969
X4.5335Y-3.3661
X4.5335Y-4.0354
X4.7579Y-2.0276
X4.7579Y-2.6969
X4.7579Y-3.3661
X4.7579Y-4.0354
X5.2421Y-1.8307
X5.2421Y-2.5
X5.2421Y-3.1693
X5.2421Y-3.8386
X5.4665Y-1.8307
X5.4665Y-2.5
X5.4665Y-3.1693
X5.4665Y-3.8386
X5.9508Y-2.0276
X5.9508Y-2.6969
X5.9508Y-3.3661
X5.9508Y-4.0354
X6.1752Y-2.0276
X6.1752Y-2.6969
X6.1752Y-3.3661
X6.1752Y-4.0354
X6.3022Y-2.064
X6.6594Y-2.4213
X6.6594Y-3.0906
X6.6594Y-3.7598
X6.6594Y-4.4291
X6.8839Y-2.4213
X6.8839Y-3.0906
X6.8839Y-3.7598
X6.8839Y-4.4291
X7.3681Y-2.5197
X7.3681Y-3.189
X7.3681Y-3.8583
X7.3681Y-4.5276
X7.5925Y-2.5197
X7.5925Y-3.189
X7.5925Y-3.8583
X7.5925Y-4.5276
T2
X3.0748Y-3.7244
X3.1535Y-3.7244
T3
X2.9392Y-1.9915
X3.2892Y-1.9915
T4
X1.5247Y-5.1104
X1.6223Y-4.9205
X1.6223Y-4.9205
X1.8263Y-4.8573
X1.9184Y-5.7206
X2.016Y-5.5307
X2.016Y-5.5307
X2.1917Y-4.6185
X2.22Y-5.4675
X2.3209Y-4.4484
X2.3209Y-4.4484
X2.5327Y-4.4216
X2.6324Y-5.2035
X2.7758Y-5.0454
X2.7758Y-5.0454
X2.9135Y-4.2575
X2.9892Y-5.0371
X3.0702Y-4.1124
X3.0702Y-4.1124
X3.2834Y-4.1228
X3.7402Y-1.7795
X3.7402Y-2.4488
X3.7402Y-3.1181
X3.7402Y-3.7874
X3.937Y-1.6969
X3.937Y-1.6969
X3.937Y-2.3661
X3.937Y-2.3661
X3.937Y-3.0354
X3.937Y-3.0354
X3.937Y-3.7047
X3.937Y-3.7047
X4.1339Y-1.7795
X4.1339Y-2.4488
X4.1339Y-3.1181
X4.1339Y-3.7874
X4.4488Y-1.6811
X4.4488Y-2.3504
X4.4488Y-3.0197
X4.4488Y-3.689
X4.6457Y-1.5984
X4.6457Y-1.5984
X4.6457Y-2.2677
X4.6457Y-2.2677
X4.6457Y-2.937
X4.6457Y-2.937
X4.6457Y-3.6063
X4.6457Y-3.6063
X4.8425Y-1.6811
X4.8425Y-2.3504
X4.8425Y-3.0197
X4.8425Y-3.689
X5.1575Y-1.4843
X5.1575Y-2.1535
X5.1575Y-2.8228
X5.1575Y-3.4921
X5.3543Y-1.4016
X5.3543Y-1.4016
X5.3543Y-2.0709
X5.3543Y-2.0709
X5.3543Y-2.7402
X5.3543Y-2.7402
X5.3543Y-3.4094
X5.3543Y-3.4094
X5.5512Y-1.4843
X5.5512Y-2.1535
X5.5512Y-2.8228
X5.5512Y-3.4921
X5.8661Y-1.6811
X5.8661Y-2.3504
X5.8661Y-3.0197
X5.8661Y-3.689
X6.063Y-1.5984
X6.063Y-1.5984
X6.063Y-2.2677
X6.063Y-2.2677
X6.063Y-2.937
X6.063Y-2.937
X6.063Y-3.6063
X6.063Y-3.6063
X6.2598Y-1.6811
X6.2598Y-2.3504
X6.2598Y-3.0197
X6.2598Y-3.689
X6.5748Y-2.0748
X6.5748Y-2.7441
X6.5748Y-3.4134
X6.5748Y-4.0827
X6.7717Y-1.9921
X6.7717Y-1.9921
X6.7717Y-2.6614
X6.7717Y-2.6614
X6.7717Y-3.3307
X6.7717Y-3.3307
X6.7717Y-4.0
X6.7717Y-4.0
X6.9685Y-2.0748
X6.9685Y-2.7441
X6.9685Y-3.4134
X6.9685Y-4.0827
X7.2835Y-2.1732
X7.2835Y-2.8425
X7.2835Y-3.5118
X7.2835Y-4.1811
X7.4803Y-2.0906
X7.4803Y-2.0906
X7.4803Y-2.7598
X7.4803Y-2.7598
X7.4803Y-3.4291
X7.4803Y-3.4291
X7.4803Y-4.0984
X7.4803Y-4.0984
X7.6772Y-2.1732
X7.6772Y-2.8425
X7.6772Y-3.5118
X7.6772Y-4.1811
M30
