M48
; DRILL file {KiCad 8.0.6} date 2025-01-31T15:21:27+0100
; FORMAT={-:-/ absolute / inch / decimal}
; #@! TF.CreationDate,2025-01-31T15:21:27+01:00
; #@! TF.GenerationSoftware,Kicad,Pcbnew,8.0.6
; #@! TF.FileFunction,NonPlated,1,2,NPTH
FMAT,2
INCH
; #@! TA.AperFunction,NonPlated,NPTH,ComponentDrill
T1C0.0354
; #@! TA.AperFunction,NonPlated,NPTH,ComponentDrill
T2C0.0670
; #@! TA.AperFunction,NonPlated,NPTH,ComponentDrill
T3C0.1350
%
G90
G05
T1
X3.878Y-1.4719
X3.9961Y-1.4719
T2
X1.6058Y-5.2376
X1.9375Y-4.9592
X1.9995Y-5.8478
X2.2495Y-4.7579
X2.3312Y-5.5695
X2.6245Y-4.5413
X2.6778Y-5.3474
X2.9461Y-4.4048
X3.0703Y-5.1644
X3.3531Y-4.2566
X3.7205Y-1.9291
X3.7205Y-2.5984
X3.7205Y-3.2677
X3.7205Y-3.937
X4.1535Y-1.9291
X4.1535Y-2.5984
X4.1535Y-3.2677
X4.1535Y-3.937
X4.4291Y-1.8307
X4.4291Y-2.5
X4.4291Y-3.1693
X4.4291Y-3.8386
X4.8622Y-1.8307
X4.8622Y-2.5
X4.8622Y-3.1693
X4.8622Y-3.8386
X5.1378Y-1.6339
X5.1378Y-2.3031
X5.1378Y-2.9724
X5.1378Y-3.6417
X5.5709Y-1.6339
X5.5709Y-2.3031
X5.5709Y-2.9724
X5.5709Y-3.6417
X5.8465Y-1.8307
X5.8465Y-2.5
X5.8465Y-3.1693
X5.8465Y-3.8386
X6.2795Y-1.8307
X6.2795Y-2.5
X6.2795Y-3.1693
X6.2795Y-3.8386
X6.5551Y-2.2244
X6.5551Y-2.8937
X6.5551Y-3.563
X6.5551Y-4.2323
X6.9882Y-2.2244
X6.9882Y-2.8937
X6.9882Y-3.563
X6.9882Y-4.2323
X7.2638Y-2.3228
X7.2638Y-2.9921
X7.2638Y-3.6614
X7.2638Y-4.3307
X7.6969Y-2.3228
X7.6969Y-2.9921
X7.6969Y-3.6614
X7.6969Y-4.3307
T3
X1.7717Y-5.0984
X2.1654Y-5.7087
X2.437Y-4.6496
X2.874Y-5.2559
X3.1496Y-4.3307
X3.937Y-1.9291
X3.937Y-2.5984
X3.937Y-3.2677
X3.937Y-3.937
X4.6457Y-1.8307
X4.6457Y-2.5
X4.6457Y-3.1693
X4.6457Y-3.8386
X5.3543Y-1.6339
X5.3543Y-2.3031
X5.3543Y-2.9724
X5.3543Y-3.6417
X6.063Y-1.8307
X6.063Y-2.5
X6.063Y-3.1693
X6.063Y-3.8386
X6.7717Y-2.2244
X6.7717Y-2.8937
X6.7717Y-3.563
X6.7717Y-4.2323
X7.4803Y-2.3228
X7.4803Y-2.9921
X7.4803Y-3.6614
X7.4803Y-4.3307
M30
